<?xml version="1.0" standalone="no"?>
<!DOCTYPE svg PUBLIC "-//W3C//DTD SVG 20010904//EN"
 "http://www.w3.org/TR/2001/REC-SVG-20010904/DTD/svg10.dtd">
<svg version="1.0" xmlns="http://www.w3.org/2000/svg"
 width="512.000000pt" height="512.000000pt" viewBox="0 0 512.000000 512.000000"
 preserveAspectRatio="xMidYMid meet">
<metadata>
Created by potrace 1.16, written by Peter Selinger 2001-2019
</metadata>
<g transform="translate(0.000000,512.000000) scale(0.100000,-0.100000)"
fill="#000000" stroke="none">
<path d="M3499 4220 c-119 -11 -268 -53 -368 -102 -125 -62 -231 -146 -376
-297 -325 -340 -410 -413 -581 -493 -171 -80 -323 -93 -664 -58 -426 44 -655
18 -906 -102 -156 -74 -288 -226 -353 -404 -43 -118 -62 -247 -62 -431 0 -383
114 -659 380 -924 133 -132 246 -212 426 -299 259 -126 503 -188 828 -211 309
-22 522 25 727 160 89 58 212 184 362 368 165 204 235 270 343 323 64 32 105
44 205 60 663 108 1156 397 1364 800 78 150 98 232 103 410 4 131 2 171 -17
260 -100 488 -475 838 -990 924 -120 20 -309 27 -421 16z m422 -170 c358 -73
626 -276 769 -583 60 -127 81 -221 87 -377 5 -117 2 -148 -16 -220 -69 -274
-267 -501 -591 -677 -194 -106 -471 -194 -746 -237 -145 -23 -256 -65 -344
-130 -61 -46 -170 -158 -253 -261 -156 -193 -233 -277 -306 -336 -214 -173
-459 -220 -861 -163 -532 75 -960 330 -1179 700 -51 87 -104 233 -125 344 -23
118 -21 359 3 475 55 267 185 413 445 501 174 60 359 68 704 33 397 -40 600
-11 827 120 140 81 247 176 494 438 78 84 178 179 222 213 131 98 273 156 444
179 100 14 311 4 426 -19z"/>
<path d="M3131 3433 c-49 -42 -24 -133 36 -133 19 0 43 -18 88 -65 70 -73 112
-95 182 -95 66 0 119 29 181 100 30 33 62 60 72 60 10 0 42 -27 72 -60 63 -72
115 -100 184 -100 69 1 123 28 178 93 69 82 75 81 160 -2 79 -76 106 -91 167
-91 50 0 79 27 79 74 0 38 -36 76 -71 76 -11 0 -49 31 -86 69 -53 53 -78 72
-113 81 -91 24 -164 -3 -240 -91 -66 -76 -83 -77 -145 -4 -57 66 -98 93 -156
101 -79 11 -126 -10 -199 -87 -37 -39 -75 -69 -85 -69 -11 0 -48 30 -85 68
-84 88 -168 116 -219 75z"/>
<path d="M735 2485 c-15 -14 -25 -36 -25 -53 0 -34 36 -72 70 -72 16 0 42 -21
82 -64 121 -131 237 -130 360 3 31 33 64 61 74 61 10 0 45 -29 78 -65 67 -71
112 -95 181 -95 67 0 105 20 175 94 35 36 70 66 78 66 9 0 43 -29 77 -65 68
-70 113 -95 173 -95 73 0 108 75 57 125 -13 14 -34 25 -47 25 -14 0 -45 24
-87 68 -74 77 -127 100 -202 88 -61 -10 -92 -29 -150 -96 -67 -77 -82 -77
-147 -4 -54 61 -128 104 -176 104 -70 0 -109 -20 -179 -91 -37 -38 -76 -69
-86 -69 -10 0 -45 28 -77 61 -93 97 -179 125 -229 74z"/>
<path d="M1050 2024 c-26 -11 -40 -37 -40 -75 0 -42 27 -69 67 -69 14 0 40
-21 75 -60 63 -72 115 -100 184 -100 69 1 121 28 177 93 70 82 78 82 155 2 73
-75 110 -95 176 -95 71 0 118 25 184 96 32 35 67 64 76 64 10 0 43 -28 74 -61
62 -67 117 -98 172 -99 52 0 80 23 80 66 0 50 -15 72 -55 80 -26 5 -54 25
-103 74 -68 69 -109 90 -178 90 -48 0 -122 -43 -176 -104 -65 -73 -80 -73
-147 4 -58 67 -89 86 -150 96 -75 12 -128 -11 -201 -88 -41 -43 -73 -68 -87
-68 -14 0 -38 20 -68 55 -26 30 -62 64 -80 75 -34 21 -109 34 -135 24z"/>
</g>
</svg>
