<svg width="25" height="25" fill="none" xmlns="http://www.w3.org/2000/svg"><path fill-rule="evenodd" clip-rule="evenodd" d="M11.62 15.48c.632.009 1.097-.54 1.194-1.167l.072-.434c2.382-.495 4.318-1.723 4.365-4.792v-.048c.05-3.215-2.057-5.035-5.194-5.083-1.917-.03-3.386.625-4.557 1.67a1.768 1.768 0 00-.586 1.297c-.014.918.671 1.703 1.499 1.715.37.006.721-.158.986-.372.794-.64 1.605-.942 2.541-.928 1.264.02 1.995.659 1.978 1.747v.048c-.019 1.184-.9 1.823-2.8 2.06-.697.086-1.12.636-1.023 1.435l.193 1.647c.077.654.526 1.192 1.158 1.202l.174.002zm-2.125 3.617v.049c-.018 1.16.774 2.066 1.863 2.083 1.09.016 1.909-.866 1.926-2.026l.001-.048c.018-1.16-.775-2.067-1.864-2.083-1.089-.017-1.908.865-1.926 2.025z" fill="#fff"/></svg>