<svg width="25" height="25" fill="none" xmlns="http://www.w3.org/2000/svg"><path fill-rule="evenodd" clip-rule="evenodd" d="M18.16 10.444c.357 0 .971.033 1.377.478.324.363.454.907.407 1.533l-.08 1.136-.002.036c-.378 5.093-.468 6.306-5.327 6.305-2.112 0-2.904-.501-3.572-.923l-.054-.034c-.55-.362-.988-.626-2.266-.626h-.582l-.012-7.743c3.015-.72 3.344-2.402 3.596-3.69l.022-.115.012-.058c.157-.744.332-1.572 1.215-1.572.34.016.599.165.81.428.68.791.618 2.554.412 4.844l4.045.001zM4.425 10.44l2.59.001.014 9.489h-2.59l-.015-9.49z" fill="#fff"/></svg>