 <svg
              width="93"
              height="75"
              viewBox="0 0 93 75"
              fill="none"
              xmlns="http://www.w3.org/2000/svg"
            >
              <rect
                width="3.00513"
                height="3.00514"
                transform="matrix(0.676024 0.736879 -0.676024 0.736879 2.03162 0)"
                fill="#FACC15"
              ></rect>
              <rect
                width="3.00513"
                height="3.00514"
                transform="matrix(0.676024 0.736879 -0.676024 0.736879 19.6641 0)"
                fill="#FACC15"
              ></rect>
              <rect
                width="3.00513"
                height="3.00514"
                transform="matrix(0.676024 0.736879 -0.676024 0.736879 37.2966 0)"
                fill="#FACC15"
              ></rect>
              <rect
                width="3.00513"
                height="3.00514"
                transform="matrix(0.676024 0.736879 -0.676024 0.736879 54.9293 0)"
                fill="#FACC15"
              ></rect>
              <rect
                width="3.00513"
                height="3.00514"
                transform="matrix(0.676024 0.736879 -0.676024 0.736879 72.5621 0)"
                fill="#FACC15"
              ></rect>
              <rect
                width="3.00513"
                height="3.00514"
                transform="matrix(0.676024 0.736879 -0.676024 0.736879 90.1945 0)"
                fill="#FACC15"
              ></rect>
              <rect
                width="3.00513"
                height="3.00514"
                transform="matrix(0.676024 0.736879 -0.676024 0.736879 2.03162 17.5488)"
                fill="#FACC15"
              ></rect>
              <rect
                width="3.00513"
                height="3.00514"
                transform="matrix(0.676024 0.736879 -0.676024 0.736879 2.03162 35.0986)"
                fill="#FACC15"
              ></rect>
              <rect
                width="3.00513"
                height="3.00514"
                transform="matrix(0.676024 0.736879 -0.676024 0.736879 2.03162 52.6475)"
                fill="#FACC15"
              ></rect>
              <rect
                width="3.00513"
                height="3.00514"
                transform="matrix(0.676024 0.736879 -0.676024 0.736879 2.03162 70.1963)"
                fill="#FACC15"
              ></rect>
              <rect
                width="3.00513"
                height="3.00514"
                transform="matrix(0.676024 0.736879 -0.676024 0.736879 19.6641 17.5488)"
                fill="#FACC15"
              ></rect>
              <rect
                width="3.00513"
                height="3.00514"
                transform="matrix(0.676024 0.736879 -0.676024 0.736879 19.6641 35.0986)"
                fill="#FACC15"
              ></rect>
              <rect
                width="3.00513"
                height="3.00514"
                transform="matrix(0.676024 0.736879 -0.676024 0.736879 19.6641 52.6475)"
                fill="#FACC15"
              ></rect>
              <rect
                width="3.00513"
                height="3.00514"
                transform="matrix(0.676024 0.736879 -0.676024 0.736879 19.6641 70.1963)"
                fill="#FACC15"
              ></rect>
              <rect
                width="3.00513"
                height="3.00514"
                transform="matrix(0.676024 0.736879 -0.676024 0.736879 37.2966 17.5488)"
                fill="#FACC15"
              ></rect>
              <rect
                width="3.00513"
                height="3.00514"
                transform="matrix(0.676024 0.736879 -0.676024 0.736879 37.2966 35.0986)"
                fill="#FACC15"
              ></rect>
              <rect
                width="3.00513"
                height="3.00514"
                transform="matrix(0.676024 0.736879 -0.676024 0.736879 37.2966 52.6475)"
                fill="#FACC15"
              ></rect>
              <rect
                width="3.00513"
                height="3.00514"
                transform="matrix(0.676024 0.736879 -0.676024 0.736879 37.2966 70.1963)"
                fill="#FACC15"
              ></rect>
              <rect
                width="3.00513"
                height="3.00514"
                transform="matrix(0.676024 0.736879 -0.676024 0.736879 54.9293 17.5488)"
                fill="#FACC15"
              ></rect>
              <rect
                width="3.00513"
                height="3.00514"
                transform="matrix(0.676024 0.736879 -0.676024 0.736879 54.9293 35.0986)"
                fill="#FACC15"
              ></rect>
              <rect
                width="3.00513"
                height="3.00514"
                transform="matrix(0.676024 0.736879 -0.676024 0.736879 54.9293 52.6475)"
                fill="#FACC15"
              ></rect>
              <rect
                width="3.00513"
                height="3.00514"
                transform="matrix(0.676024 0.736879 -0.676024 0.736879 54.9293 70.1963)"
                fill="#FACC15"
              ></rect>
              <rect
                width="3.00513"
                height="3.00514"
                transform="matrix(0.676024 0.736879 -0.676024 0.736879 72.5621 17.5488)"
                fill="#FACC15"
              ></rect>
              <rect
                width="3.00513"
                height="3.00514"
                transform="matrix(0.676024 0.736879 -0.676024 0.736879 72.5621 35.0986)"
                fill="#FACC15"
              ></rect>
              <rect
                width="3.00513"
                height="3.00514"
                transform="matrix(0.676024 0.736879 -0.676024 0.736879 72.5621 52.6475)"
                fill="#FACC15"
              ></rect>
              <rect
                width="3.00513"
                height="3.00514"
                transform="matrix(0.676024 0.736879 -0.676024 0.736879 72.5621 70.1963)"
                fill="#FACC15"
              ></rect>
              <rect
                width="3.00513"
                height="3.00514"
                transform="matrix(0.676024 0.736879 -0.676024 0.736879 90.1945 17.5488)"
                fill="#FACC15"
              ></rect>
              <rect
                width="3.00513"
                height="3.00514"
                transform="matrix(0.676024 0.736879 -0.676024 0.736879 90.1945 35.0986)"
                fill="#FACC15"
              ></rect>
              <rect
                width="3.00513"
                height="3.00514"
                transform="matrix(0.676024 0.736879 -0.676024 0.736879 90.1945 52.6475)"
                fill="#FACC15"
              ></rect>
              <rect
                width="3.00513"
                height="3.00514"
                transform="matrix(0.676024 0.736879 -0.676024 0.736879 90.1945 70.1963)"
                fill="#FACC15"
              ></rect>
            </svg>